{
  "accessors": [
    {
      "bufferView": 2,
      "componentType": 5126,
      "count": 10827,
      "max": [
        0.14523400366306305,
        0.058844998478889465,
        0.16064000129699707
      ],
      "min": [
        -0.14904700219631195,
        -0.0536700002849102,
        7.500000356230885e-05
      ],
      "type": "VEC3"
    },
    {
      "bufferView": 2,
      "byteOffset": 129924,
      "componentType": 5126,
      "count": 10827,
      "max": [
        0.9999713897705078,
        0.9999420642852783,
        0.9995192885398865
      ],
      "min": [
        -0.9995607733726501,
        -0.9998497366905212,
        -0.9999791383743286
      ],
      "type": "VEC3"
    },
    {
      "bufferView": 3,
      "componentType": 5126,
      "count": 10827,
      "max": [
        0.999487578868866,
        0.9992469549179077,
        0.999575138092041,
        1.0
      ],
      "min": [
        -0.9999620914459229,
        -0.9998118877410889,
        -0.9997333288192749,
        -1.0
      ],
      "type": "VEC4"
    },
    {
      "bufferView": 1,
      "componentType": 5126,
      "count": 10827,
      "max": [
        0.9980469942092896,
        0.9229400157928467
      ],
      "min": [
        0.0019529999699443579,
        0.0019529999699443579
      ],
      "type": "VEC2"
    },
    {
      "bufferView": 0,
      "componentType": 5125,
      "count": 59508,
      "type": "SCALAR"
    }
  ],
  "asset": {
    "extras": {
      "author": "inciprocal (https://sketchfab.com/inciprocal.com)",
      "license": "CC-BY-4.0 (http://creativecommons.org/licenses/by/4.0/)",
      "source": "https://sketchfab.com/3d-models/fairbanks-snow-boot-b39f6aaeb97549afb76a44375e93245b",
      "title": "Fairbanks Snow Boot"
    },
    "generator": "Sketchfab-12.65.0",
    "version": "2.0"
  },
  "bufferViews": [
    {
      "buffer": 0,
      "byteLength": 238032,
      "name": "floatBufferViews",
      "target": 34963
    },
    {
      "buffer": 0,
      "byteLength": 86616,
      "byteOffset": 238032,
      "byteStride": 8,
      "name": "floatBufferViews",
      "target": 34962
    },
    {
      "buffer": 0,
      "byteLength": 259848,
      "byteOffset": 324648,
      "byteStride": 12,
      "name": "floatBufferViews",
      "target": 34962
    },
    {
      "buffer": 0,
      "byteLength": 173232,
      "byteOffset": 584496,
      "byteStride": 16,
      "name": "floatBufferViews",
      "target": 34962
    }
  ],
  "buffers": [
    {
      "byteLength": 757728,
      "uri": "scene.bin"
    }
  ],
  "extensionsRequired": [
    "KHR_materials_pbrSpecularGlossiness"
  ],
  "extensionsUsed": [
    "KHR_materials_pbrSpecularGlossiness"
  ],
  "images": [
    {
      "uri": "textures/sh_fairbanksSnowBoot_diffuse.jpeg"
    },
    {
      "uri": "textures/sh_fairbanksSnowBoot_specularGlossiness.png"
    },
    {
      "uri": "textures/sh_fairbanksSnowBoot_normal.jpeg"
    },
    {
      "uri": "textures/sh_fairbanksSnowBoot_occlusion.png"
    }
  ],
  "materials": [
    {
      "doubleSided": true,
      "extensions": {
        "KHR_materials_pbrSpecularGlossiness": {
          "diffuseFactor": [
            0.85,
            0.85,
            0.85,
            1.0
          ],
          "diffuseTexture": {
            "index": 0
          },
          "glossinessFactor": 1.0,
          "specularFactor": [
            0.35,
            0.35,
            0.35
          ],
          "specularGlossinessTexture": {
            "index": 1
          }
        }
      },
      "name": "sh_fairbanksSnowBoot",
      "normalTexture": {
        "index": 2
      },
      "occlusionTexture": {
        "index": 3
      }
    }
  ],
  "meshes": [
    {
      "name": "Object_0",
      "primitives": [
        {
          "attributes": {
            "NORMAL": 1,
            "POSITION": 0,
            "TANGENT": 2,
            "TEXCOORD_0": 3
          },
          "indices": 4,
          "material": 0,
          "mode": 4
        }
      ]
    }
  ],
  "nodes": [
    {
      "children": [
        1
      ],
      "matrix": [
        0.8747625350952148,
        -1.0759213004604606e-16,
        0.48455187678337097,
        0.0,
        0.48455187678337097,
        1.9423630150843581e-16,
        -0.8747625350952148,
        0.0,
        0.0,
        1.0,
        2.220446049250313e-16,
        0.0,
        -0.02598271705210209,
        -4.619759053355582e-18,
        0.020805545151233673,
        1.0
      ],
      "name": "Sketchfab_model"
    },
    {
      "children": [
        2
      ],
      "name": "sh_fairbanksSnowBoot.obj.cleaner.materialmerger.gles"
    },
    {
      "mesh": 0,
      "name": "Object_2"
    }
  ],
  "samplers": [
    {
      "magFilter": 9729,
      "minFilter": 9987,
      "wrapS": 10497,
      "wrapT": 10497
    }
  ],
  "scene": 0,
  "scenes": [
    {
      "name": "Sketchfab_Scene",
      "nodes": [
        0
      ]
    }
  ],
  "textures": [
    {
      "sampler": 0,
      "source": 0
    },
    {
      "sampler": 0,
      "source": 1
    },
    {
      "sampler": 0,
      "source": 2
    },
    {
      "sampler": 0,
      "source": 3
    }
  ]
}
