{
  "accessors": [
    {
      "bufferView": 2,
      "componentType": 5126,
      "count": 11796,
      "max": [
        0.12552200257778168,
        0.04446199908852577,
        0.1278969943523407
      ],
      "min": [
        -0.09489399939775467,
        -0.04402900114655495,
        0.00015799999528098851
      ],
      "type": "VEC3"
    },
    {
      "bufferView": 2,
      "byteOffset": 141552,
      "componentType": 5126,
      "count": 11796,
      "max": [
        0.9995478987693787,
        0.999987006187439,
        0.9995240569114685
      ],
      "min": [
        -0.9998310208320618,
        -0.9999693632125854,
        -0.9999996423721313
      ],
      "type": "VEC3"
    },
    {
      "bufferView": 3,
      "componentType": 5126,
      "count": 11796,
      "max": [
        0.9993582963943481,
        0.999394953250885,
        0.9996218681335449,
        1.0
      ],
      "min": [
        -0.9999796748161316,
        -0.9998360872268677,
        -0.9992755055427551,
        -1.0
      ],
      "type": "VEC4"
    },
    {
      "bufferView": 1,
      "componentType": 5126,
      "count": 11796,
      "max": [
        0.9960939884185791,
        0.9354770183563232
      ],
      "min": [
        0.0039059999398887157,
        0.0039059999398887157
      ],
      "type": "VEC2"
    },
    {
      "bufferView": 0,
      "componentType": 5125,
      "count": 66330,
      "type": "SCALAR"
    }
  ],
  "asset": {
    "extras": {
      "author": "inciprocal (https://sketchfab.com/inciprocal.com)",
      "license": "CC-BY-4.0 (http://creativecommons.org/licenses/by/4.0/)",
      "source": "https://sketchfab.com/3d-models/merrell-kids-boot-bbb0764dd0fb4f88b7e6acd6f62d6947",
      "title": "Merrell Kid's Boot"
    },
    "generator": "Sketchfab-12.65.0",
    "version": "2.0"
  },
  "bufferViews": [
    {
      "buffer": 0,
      "byteLength": 265320,
      "name": "floatBufferViews",
      "target": 34963
    },
    {
      "buffer": 0,
      "byteLength": 94368,
      "byteOffset": 265320,
      "byteStride": 8,
      "name": "floatBufferViews",
      "target": 34962
    },
    {
      "buffer": 0,
      "byteLength": 283104,
      "byteOffset": 359688,
      "byteStride": 12,
      "name": "floatBufferViews",
      "target": 34962
    },
    {
      "buffer": 0,
      "byteLength": 188736,
      "byteOffset": 642792,
      "byteStride": 16,
      "name": "floatBufferViews",
      "target": 34962
    }
  ],
  "buffers": [
    {
      "byteLength": 831528,
      "uri": "scene.bin"
    }
  ],
  "extensionsRequired": [
    "KHR_materials_pbrSpecularGlossiness"
  ],
  "extensionsUsed": [
    "KHR_materials_pbrSpecularGlossiness"
  ],
  "images": [
    {
      "uri": "textures/sh_merrellKidsShoe_diffuse.jpeg"
    },
    {
      "uri": "textures/sh_merrellKidsShoe_specularGlossiness.png"
    },
    {
      "uri": "textures/sh_merrellKidsShoe_normal.jpeg"
    },
    {
      "uri": "textures/sh_merrellKidsShoe_occlusion.png"
    }
  ],
  "materials": [
    {
      "doubleSided": true,
      "extensions": {
        "KHR_materials_pbrSpecularGlossiness": {
          "diffuseFactor": [
            1.0,
            1.0,
            1.0,
            1.0
          ],
          "diffuseTexture": {
            "index": 0
          },
          "glossinessFactor": 1.0,
          "specularFactor": [
            0.5975670187086929,
            0.5975670187086929,
            0.5975670187086929
          ],
          "specularGlossinessTexture": {
            "index": 1
          }
        }
      },
      "name": "sh_merrellKidsShoe",
      "normalTexture": {
        "index": 2
      },
      "occlusionTexture": {
        "index": 3
      }
    }
  ],
  "meshes": [
    {
      "name": "Object_0",
      "primitives": [
        {
          "attributes": {
            "NORMAL": 1,
            "POSITION": 0,
            "TANGENT": 2,
            "TEXCOORD_0": 3
          },
          "indices": 4,
          "material": 0,
          "mode": 4
        }
      ]
    }
  ],
  "nodes": [
    {
      "children": [
        1
      ],
      "matrix": [
        0.8747625350952148,
        -1.0759213004604606e-16,
        0.48455187678337097,
        0.0,
        0.48455187678337097,
        1.9423630150843581e-16,
        -0.8747625350952148,
        0.0,
        0.0,
        1.0,
        2.220446049250313e-16,
        0.0,
        -0.02598271705210209,
        -4.619759053355582e-18,
        0.020805545151233673,
        1.0
      ],
      "name": "Sketchfab_model"
    },
    {
      "children": [
        2
      ],
      "name": "sh_merrellKidsShoe.obj.cleaner.materialmerger.gles"
    },
    {
      "mesh": 0,
      "name": "Object_2"
    }
  ],
  "samplers": [
    {
      "magFilter": 9729,
      "minFilter": 9987,
      "wrapS": 10497,
      "wrapT": 10497
    }
  ],
  "scene": 0,
  "scenes": [
    {
      "name": "Sketchfab_Scene",
      "nodes": [
        0
      ]
    }
  ],
  "textures": [
    {
      "sampler": 0,
      "source": 0
    },
    {
      "sampler": 0,
      "source": 1
    },
    {
      "sampler": 0,
      "source": 2
    },
    {
      "sampler": 0,
      "source": 3
    }
  ]
}
